<?xml version="1.0" encoding="UTF-8" standalone="no"?>
<svg
   id="Layer_1"
   data-name="Layer 1"
   viewBox="0 0 122.88 122.88"
   version="1.1"
   sodipodi:docname="black-bottom-arrow-icon.svg"
   xml:space="preserve"
   inkscape:version="1.2.2 (732a01da63, 2022-12-09)"
   xmlns:inkscape="http://www.inkscape.org/namespaces/inkscape"
   xmlns:sodipodi="http://sodipodi.sourceforge.net/DTD/sodipodi-0.dtd"
   xmlns="http://www.w3.org/2000/svg"
   xmlns:svg="http://www.w3.org/2000/svg"
   xmlns:rdf="http://www.w3.org/1999/02/22-rdf-syntax-ns#"
   xmlns:cc="http://creativecommons.org/ns#"
   xmlns:dc="http://purl.org/dc/elements/1.1/"><defs
     id="defs18" /><sodipodi:namedview
     id="namedview16"
     pagecolor="#ffffff"
     bordercolor="#000000"
     borderopacity="0.25"
     inkscape:showpageshadow="2"
     inkscape:pageopacity="0.0"
     inkscape:pagecheckerboard="0"
     inkscape:deskcolor="#d1d1d1"
     showgrid="false"
     inkscape:zoom="3.4464519"
     inkscape:cx="4.9326091"
     inkscape:cy="73.118676"
     inkscape:window-width="1920"
     inkscape:window-height="1027"
     inkscape:window-x="-8"
     inkscape:window-y="-8"
     inkscape:window-maximized="1"
     inkscape:current-layer="Layer_1" /><title
     id="title11">round-black-bottom-arrow</title><path
     d="M122.85,61.45h0A61.39,61.39,0,0,0,61.45,0V0h0V0A61.38,61.38,0,0,0,0,61.43H0v0H0a61.35,61.35,0,0,0,61.4,61.38v0h0v0a61.34,61.34,0,0,0,61.38-61.4ZM61.44,94.22l-31-34.32H50.25V36H72.62V59.89H92.4l-31,34.33Z"
     id="path13"
     style="fill:#ffffff" /><circle
     style="fill:#ffffff;stroke-width:2.96128"
     id="path908"
     cx="-61.425003"
     cy="61.424995"
     r="61.424999"
     transform="scale(-1,1)" /><path
     d="m 118.99997,61.542148 v 0 A 57.467217,57.485927 0 0 0 61.523399,4.0000374 v 0 0 0 A 57.457855,57.476563 0 0 0 4.0000191,61.523421 v 0 0 0 A 57.429772,57.44847 0 0 0 61.476594,118.99998 v 0 0 0 A 57.420412,57.439106 0 0 0 118.93445,61.504692 Z M 61.514038,92.228153 32.494918,60.09072 H 51.039072 V 37.710631 H 71.979643 V 60.081356 H 90.495712 L 61.476594,92.228153 Z"
     id="path932"
     style="fill:#000000;stroke-width:0.936253" /><metadata
     id="metadata940"><rdf:RDF><cc:Work
         rdf:about=""><dc:title>round-black-bottom-arrow</dc:title></cc:Work></rdf:RDF></metadata></svg>
