<svg width="122.88" height="122.88" xmlns="http://www.w3.org/2000/svg" data-name="Layer 1">

 <title>turn-off</title>
 <g>
  <title>Layer 1</title>
  <path id="svg_1" fill-rule="evenodd" fill="#00bf00" d="m61.44,0a61.44,61.44 0 1 1 -61.44,61.44a61.44,61.44 0 0 1 61.44,-61.44z" class="cls-1"/>
  <path id="svg_2" fill="#56ff56" fill-rule="evenodd" d="m61.44,2.25a59.15,59.15 0 0 1 59.15,59.15c0,0.77 0,1.54 0,2.3a59.14,59.14 0 0 0 -118.2,0c0,-0.76 0,-1.53 0,-2.3a59.15,59.15 0 0 1 59.05,-59.15z" class="cls-2"/>
  <path id="svg_3" fill="#fff" d="m81,44.75a7.08,7.08 0 0 1 10.71,-9.27a40,40 0 1 1 -60.87,0.39a7.07,7.07 0 0 1 10.83,9.13a25.85,25.85 0 1 0 39.33,-0.25zm-12.46,3.17a7.1,7.1 0 1 1 -14.2,0l0,-21.18a7.1,7.1 0 1 1 14.2,0l0,21.18z" class="cls-3"/>
 </g>
</svg>