<?xml version="1.0" encoding="UTF-8" standalone="no"?>
<svg
   id="Layer_1"
   data-name="Layer 1"
   viewBox="0 0 122.88 122.88"
   version="1.1"
   sodipodi:docname="line-top-arrow-icon.svg"
   xml:space="preserve"
   inkscape:version="1.2.2 (732a01da63, 2022-12-09)"
   xmlns:inkscape="http://www.inkscape.org/namespaces/inkscape"
   xmlns:sodipodi="http://sodipodi.sourceforge.net/DTD/sodipodi-0.dtd"
   xmlns="http://www.w3.org/2000/svg"
   xmlns:svg="http://www.w3.org/2000/svg"
   xmlns:rdf="http://www.w3.org/1999/02/22-rdf-syntax-ns#"
   xmlns:cc="http://creativecommons.org/ns#"
   xmlns:dc="http://purl.org/dc/elements/1.1/"><defs
     id="defs18" /><sodipodi:namedview
     id="namedview16"
     pagecolor="#ffffff"
     bordercolor="#000000"
     borderopacity="0.25"
     inkscape:showpageshadow="2"
     inkscape:pageopacity="0.0"
     inkscape:pagecheckerboard="0"
     inkscape:deskcolor="#d1d1d1"
     showgrid="false"
     inkscape:zoom="3.4464519"
     inkscape:cx="4.9326091"
     inkscape:cy="73.118676"
     inkscape:window-width="1920"
     inkscape:window-height="1027"
     inkscape:window-x="-8"
     inkscape:window-y="-8"
     inkscape:window-maximized="1"
     inkscape:current-layer="Layer_1" /><title
     id="title11">round-black-bottom-arrow</title><metadata
     id="metadata940"><rdf:RDF><cc:Work
         rdf:about=""><dc:title>round-black-bottom-arrow</dc:title></cc:Work></rdf:RDF></metadata><circle
     style="fill:#ffffff;stroke-width:2.96128"
     id="path908"
     cx="-61.424999"
     cy="61.424999"
     r="61.424999"
     transform="scale(-1,1)" /><path
     d="m 119,61.509381 v 0 A 57.467198,57.471885 0 0 1 61.49536,118.99999 v 0 0 0 A 57.457837,57.462523 0 0 1 4.0000764,61.528104 v 0 0 0 A 57.429754,57.434438 0 0 1 61.504721,4.000049 v 0 0 0 A 57.420393,57.425076 0 0 1 118.96255,61.481296 Z M 61.514082,33.864084 35.752602,62.426834 H 52.209245 V 82.339312 H 70.818919 V 62.426834 H 87.313006 Z M 106.709,61.518743 v 0 A 45.269811,45.273503 0 0 0 61.542165,16.30141 v 0 0 0 A 45.26045,45.264142 0 0 0 16.300438,61.490657 v 0 0 0 a 45.185562,45.189247 0 0 0 45.185561,45.207973 v 0 0 0 A 45.213645,45.217333 0 0 0 106.67156,61.481296 Z"
     id="path1259"
     style="stroke-width:0.936139" /></svg>
