<?xml version="1.0" encoding="UTF-8" standalone="no"?>
<svg
   id="Layer_1"
   data-name="Layer 1"
   viewBox="0 0 122.88 122.88"
   version="1.1"
   sodipodi:docname="line-right-arrow-icon.svg"
   xml:space="preserve"
   inkscape:version="1.2.2 (732a01da63, 2022-12-09)"
   xmlns:inkscape="http://www.inkscape.org/namespaces/inkscape"
   xmlns:sodipodi="http://sodipodi.sourceforge.net/DTD/sodipodi-0.dtd"
   xmlns="http://www.w3.org/2000/svg"
   xmlns:svg="http://www.w3.org/2000/svg"
   xmlns:rdf="http://www.w3.org/1999/02/22-rdf-syntax-ns#"
   xmlns:cc="http://creativecommons.org/ns#"
   xmlns:dc="http://purl.org/dc/elements/1.1/"><defs
     id="defs18" /><sodipodi:namedview
     id="namedview16"
     pagecolor="#ffffff"
     bordercolor="#000000"
     borderopacity="0.25"
     inkscape:showpageshadow="2"
     inkscape:pageopacity="0.0"
     inkscape:pagecheckerboard="0"
     inkscape:deskcolor="#d1d1d1"
     showgrid="false"
     inkscape:zoom="3.4464519"
     inkscape:cx="4.9326091"
     inkscape:cy="73.118676"
     inkscape:window-width="1920"
     inkscape:window-height="1027"
     inkscape:window-x="-8"
     inkscape:window-y="-8"
     inkscape:window-maximized="1"
     inkscape:current-layer="Layer_1" /><title
     id="title11">round-black-bottom-arrow</title><metadata
     id="metadata940"><rdf:RDF><cc:Work
         rdf:about=""><dc:title>round-black-bottom-arrow</dc:title></cc:Work></rdf:RDF></metadata><circle
     style="fill:#ffffff;stroke-width:2.96128"
     id="path908"
     cx="-61.424999"
     cy="61.424999"
     r="61.424999"
     transform="scale(-1,1)" /><path
     d="m 61.542147,118.99997 v 0 0 A 57.485926,57.467213 0 0 1 4.0000374,61.523398 v 0 0 0 A 57.476562,57.457852 0 0 1 61.523419,4.0000191 v 0 0 0 A 57.448469,57.429769 0 0 1 118.99998,61.476593 v 0 0 0 A 57.439105,57.420408 0 0 1 61.504691,118.93445 Z M 89.212926,61.514037 60.62447,35.75255 V 52.209198 H 40.707128 V 70.818877 H 60.62447 V 87.312969 Z M 61.532783,106.70897 v 0 0 A 45.284564,45.269823 0 0 0 106.7518,61.523398 v 0 0 0 A 45.2752,45.260462 0 0 0 61.560876,16.30038 v 0 0 0 A 45.200287,45.185574 0 0 0 16.304404,61.485954 v 0 0 0 a 45.228379,45.213657 0 0 0 45.228379,45.185576 z"
     id="path1224"
     style="stroke-width:0.936253" /></svg>
