<?xml version="1.0" encoding="UTF-8" standalone="no"?>
<svg
   id="Layer_1"
   data-name="Layer 1"
   viewBox="0 0 122.88 122.88"
   version="1.1"
   sodipodi:docname="line-bottom-arrow-icon.svg"
   xml:space="preserve"
   inkscape:version="1.2.2 (732a01da63, 2022-12-09)"
   xmlns:inkscape="http://www.inkscape.org/namespaces/inkscape"
   xmlns:sodipodi="http://sodipodi.sourceforge.net/DTD/sodipodi-0.dtd"
   xmlns="http://www.w3.org/2000/svg"
   xmlns:svg="http://www.w3.org/2000/svg"
   xmlns:rdf="http://www.w3.org/1999/02/22-rdf-syntax-ns#"
   xmlns:cc="http://creativecommons.org/ns#"
   xmlns:dc="http://purl.org/dc/elements/1.1/"><defs
     id="defs18" /><sodipodi:namedview
     id="namedview16"
     pagecolor="#ffffff"
     bordercolor="#000000"
     borderopacity="0.25"
     inkscape:showpageshadow="2"
     inkscape:pageopacity="0.0"
     inkscape:pagecheckerboard="0"
     inkscape:deskcolor="#d1d1d1"
     showgrid="false"
     inkscape:zoom="3.4464519"
     inkscape:cx="4.9326091"
     inkscape:cy="73.118676"
     inkscape:window-width="1920"
     inkscape:window-height="1027"
     inkscape:window-x="-8"
     inkscape:window-y="-8"
     inkscape:window-maximized="1"
     inkscape:current-layer="Layer_1" /><title
     id="title11">round-black-bottom-arrow</title><circle
     style="fill:#ffffff;stroke-width:2.96128"
     id="path908"
     cx="-61.424999"
     cy="61.424999"
     r="61.424999"
     transform="scale(-1,1)" /><metadata
     id="metadata940"><rdf:RDF><cc:Work
         rdf:about=""><dc:title>round-black-bottom-arrow</dc:title></cc:Work></rdf:RDF></metadata><path
     d="m 118.99997,61.542147 v 0 A 57.467218,57.485926 0 0 0 61.523406,4.0000374 v 0 0 0 A 57.457857,57.476562 0 0 0 4.0000191,61.523419 v 0 0 0 A 57.429774,57.448469 0 0 0 61.476601,118.99998 v 0 0 0 A 57.420413,57.439105 0 0 0 118.93445,61.504691 Z M 61.514045,89.212926 35.752555,60.62447 H 52.209204 V 40.707128 H 70.818885 V 60.62447 h 16.49409 z M 106.70897,61.551511 v 0 A 45.269827,45.284564 0 0 1 61.523406,106.77053 v 0 0 0 A 45.260466,45.2752 0 0 1 16.300384,61.560876 v 0 0 0 A 45.185578,45.200287 0 0 1 61.485962,16.304405 v 0 0 0 a 45.213661,45.228379 0 0 1 45.185568,45.228378 z"
     id="path1095"
     style="fill:#000000;stroke-width:0.936253" /></svg>
