<?xml version="1.0" encoding="UTF-8" standalone="no"?>
<svg
   id="Layer_1"
   data-name="Layer 1"
   viewBox="0 0 122.88 122.88"
   version="1.1"
   sodipodi:docname="left-arrow-icon.svg"
   xml:space="preserve"
   inkscape:version="1.2.2 (732a01da63, 2022-12-09)"
   xmlns:inkscape="http://www.inkscape.org/namespaces/inkscape"
   xmlns:sodipodi="http://sodipodi.sourceforge.net/DTD/sodipodi-0.dtd"
   xmlns="http://www.w3.org/2000/svg"
   xmlns:svg="http://www.w3.org/2000/svg"
   xmlns:rdf="http://www.w3.org/1999/02/22-rdf-syntax-ns#"
   xmlns:cc="http://creativecommons.org/ns#"
   xmlns:dc="http://purl.org/dc/elements/1.1/"><defs
     id="defs18" /><sodipodi:namedview
     id="namedview16"
     pagecolor="#ffffff"
     bordercolor="#000000"
     borderopacity="0.25"
     inkscape:showpageshadow="2"
     inkscape:pageopacity="0.0"
     inkscape:pagecheckerboard="0"
     inkscape:deskcolor="#d1d1d1"
     showgrid="false"
     inkscape:zoom="3.4464519"
     inkscape:cx="4.9326091"
     inkscape:cy="73.118676"
     inkscape:window-width="1920"
     inkscape:window-height="1027"
     inkscape:window-x="-8"
     inkscape:window-y="-8"
     inkscape:window-maximized="1"
     inkscape:current-layer="Layer_1" /><title
     id="title11">round-black-bottom-arrow</title><metadata
     id="metadata940"><rdf:RDF><cc:Work
         rdf:about=""><dc:title>round-black-bottom-arrow</dc:title></cc:Work></rdf:RDF></metadata><circle
     style="fill:#ffffff;stroke-width:2.96128"
     id="path908"
     cx="-61.424999"
     cy="61.424999"
     r="61.424999"
     transform="scale(-1,1)" /><path
     d="m 61.509402,4.000062 v 0 0 a 57.471862,57.485895 0 0 1 57.490588,57.523351 v 0 0 0 A 57.4625,57.476531 0 0 1 61.518763,118.99994 v 0 0 0 A 57.434415,57.448439 0 0 1 4.0000924,61.542141 v 0 0 0 A 57.425053,57.439075 0 0 1 61.509402,4.000062 Z M 33.864112,61.532777 62.426854,87.340095 V 70.840641 H 82.339321 V 52.224913 H 62.426854 V 35.762915 Z M 61.518763,16.32315 v 0 0 A 45.273485,45.284539 0 0 0 16.301452,61.504685 v 0 0 0 a 45.264123,45.275175 0 0 0 45.189226,45.218995 v 0 0 0 A 45.189229,45.200263 0 0 0 106.69863,61.523413 v 0 0 0 A 45.217314,45.228355 0 0 0 61.481316,16.32315 Z"
     id="path1175"
     style="stroke-width:0.936291" /></svg>
