<?xml version="1.0" encoding="UTF-8" standalone="no"?>
<svg
   id="Layer_1"
   data-name="Layer 1"
   viewBox="0 0 122.88 96"
   version="1.1"
   sodipodi:docname="sound-off-icon.svg"
   inkscape:version="1.2.2 (732a01da63, 2022-12-09)"
   xml:space="preserve"
   xmlns:inkscape="http://www.inkscape.org/namespaces/inkscape"
   xmlns:sodipodi="http://sodipodi.sourceforge.net/DTD/sodipodi-0.dtd"
   xmlns="http://www.w3.org/2000/svg"
   xmlns:svg="http://www.w3.org/2000/svg"><defs
     id="defs10916" /><sodipodi:namedview
     id="namedview10914"
     pagecolor="#ffffff"
     bordercolor="#000000"
     borderopacity="0.25"
     inkscape:showpageshadow="2"
     inkscape:pageopacity="0.0"
     inkscape:pagecheckerboard="0"
     inkscape:deskcolor="#d1d1d1"
     showgrid="false"
     inkscape:zoom="6.2387442"
     inkscape:cx="66.038931"
     inkscape:cy="60.428828"
     inkscape:window-width="1920"
     inkscape:window-height="1027"
     inkscape:window-x="-8"
     inkscape:window-y="-8"
     inkscape:window-maximized="1"
     inkscape:current-layer="Layer_1" /><title
     id="title10909">volume-mute</title><rect
     style="fill:#ffffff;stroke-width:1.62981"
     id="rect11318-0"
     width="75.149483"
     height="16.56229"
     x="60.064053"
     y="-49.712551"
     ry="7.158792"
     transform="matrix(0.65152344,0.7586285,-0.79795421,0.60271808,0,0)"
     inkscape:transform-center-x="-26.141182"
     inkscape:transform-center-y="-2.5273913"
     rx="8.3145084" /><rect
     style="fill:#ffffff;stroke-width:1.62981"
     id="rect11318-4-6"
     width="75.536674"
     height="16.074938"
     x="-57.021805"
     y="97.394936"
     ry="8.0374689"
     transform="matrix(-0.65152344,0.7586285,0.79795421,0.60271808,0,0)"
     inkscape:transform-center-x="26.141186"
     inkscape:transform-center-y="-2.5273908"
     rx="8.4561272" /><g
     id="g11108"
     transform="translate(-0.82813799,-0.66457864)"><path
       d="M 15.71888,22.55034 37.923008,22.778558 57.525591,3.6075336 c 1.329589,-1.3107138 5.17696,-0.7401707 6.506549,0.5705431 0.644257,0.6403613 0.99274,2.4222824 0.99274,2.4222824 v 0 L 64.910772,90.003154 c -0.01147,3.069887 -5.562918,3.442958 -7.712678,1.251413 L 38.786339,75.776533 H 14.007251 c -6.0310172,0 -9.6408148,-6.258462 -9.6649251,-12.289431 L 4.2282172,34.943951 C 4.2041069,28.912983 9.6878634,22.540416 15.71888,22.540413 Z"
       id="path10969-2"
       style="fill:#ffffff;stroke-width:0.992739"
       sodipodi:nodetypes="ccccsccccssscc" /><path
       d="m 16.00788,25.009275 h 22.797997 l 19.4235,-19.548813 c 1.198811,-1.1817956 3.124484,-1.1817956 4.323295,0 0.580887,0.5773751 0.903705,1.3650513 0.895092,2.1840248 v 0 80.3434732 c -0.01034,2.76793 -3.369588,4.133154 -5.307896,2.157171 L 38.966994,73.926062 H 16.00788 c -5.437804,10e-7 -9.8460153,-4.408211 -9.8460145,-9.846015 V 34.846338 c -3e-7,-5.437804 4.4082105,-9.846015 9.8460145,-9.846014 z m 24.069028,6.176136 H 16.00788 c -2.021298,0.0049 -3.660048,1.639647 -3.669878,3.660927 V 64.09795 c 0.0098,2.021279 1.648581,3.656032 3.669878,3.660926 h 24.077979 c 0,0 1.790184,0.617614 1.978153,0.742927 L 57.325334,81.364278 V 15.127457 L 42.431,30.102349 c -0.588691,0.687727 -1.448816,1.08345 -2.354092,1.083062 z"
       id="path10969"
       style="stroke-width:0.895092"
       sodipodi:nodetypes="ccccsccccsssccccccccccccc" /></g><text
     xml:space="preserve"
     style="font-style:normal;font-variant:normal;font-weight:normal;font-stretch:normal;font-size:64px;font-family:Consolas;-inkscape-font-specification:Consolas;fill:#ffffff"
     x="72.290192"
     y="66.680084"
     id="text11164"><tspan
       sodipodi:role="line"
       id="tspan11162"
       x="72.290192"
       y="66.680084"
       style="font-style:normal;font-variant:normal;font-weight:normal;font-stretch:normal;font-size:64px;font-family:Consolas;-inkscape-font-specification:Consolas;fill:#000000" /></text><rect
     style="fill:#000000;stroke-width:1.48942"
     id="rect11318"
     width="70.249413"
     height="11.767517"
     x="62.611935"
     y="-47.455566"
     ry="5.8127728"
     transform="matrix(0.64828463,0.76139808,-0.79544349,0.60602776,0,0)"
     inkscape:transform-center-x="-23.792461"
     inkscape:transform-center-y="-2.3202402" /><rect
     style="fill:#000000;stroke-width:1.48942"
     id="rect11318-4"
     width="70.249413"
     height="11.767517"
     x="-54.437923"
     y="99.603088"
     ry="5.8127728"
     transform="matrix(-0.64828463,0.76139808,0.79544349,0.60602776,0,0)"
     inkscape:transform-center-x="23.792462"
     inkscape:transform-center-y="-2.320242" /></svg>
