<?xml version="1.0" encoding="UTF-8" standalone="no"?>
<svg
   id="Layer_1"
   data-name="Layer 1"
   viewBox="0 0 122.88 96.65"
   version="1.1"
   sodipodi:docname="sound-on-icon.svg"
   inkscape:version="1.2.2 (732a01da63, 2022-12-09)"
   xmlns:inkscape="http://www.inkscape.org/namespaces/inkscape"
   xmlns:sodipodi="http://sodipodi.sourceforge.net/DTD/sodipodi-0.dtd"
   xmlns="http://www.w3.org/2000/svg"
   xmlns:svg="http://www.w3.org/2000/svg">
  <defs
     id="defs10974" />
  <sodipodi:namedview
     id="namedview10972"
     pagecolor="#ffffff"
     bordercolor="#000000"
     borderopacity="0.25"
     inkscape:showpageshadow="2"
     inkscape:pageopacity="0.0"
     inkscape:pagecheckerboard="0"
     inkscape:deskcolor="#d1d1d1"
     showgrid="false"
     inkscape:zoom="3.0983934"
     inkscape:cx="-1.2909917"
     inkscape:cy="94.887888"
     inkscape:window-width="1920"
     inkscape:window-height="1027"
     inkscape:window-x="-8"
     inkscape:window-y="-8"
     inkscape:window-maximized="1"
     inkscape:current-layer="Layer_1" />
  <title
     id="title10967">sound</title>
  <path
     d="M 15.71888,22.55034 37.923008,22.778558 57.525591,3.6075336 c 1.329589,-1.3107138 5.17696,-0.7401707 6.506549,0.5705431 0.644257,0.6403613 0.99274,2.4222824 0.99274,2.4222824 v 0 L 64.910772,90.003154 c -0.01147,3.069887 -5.562918,3.442958 -7.712678,1.251413 l -18.411755,-15.478034 -24.779088,0 c -6.0310172,0 -9.6408148,-6.258462 -9.6649251,-12.289431 L 4.2282172,34.943951 C 4.2041069,28.912983 9.6878634,22.540416 15.71888,22.540413 Z m 57.515351,14.948135 c -1.783431,-4.258222 6.226878,-6.644174 7.310905,-2.15664 1.194712,4.284638 1.703314,8.956967 1.534836,13.40186 -0.0894,4.725435 -1.102832,9.371453 -2.443022,12.121339 -1.779414,4.100786 -9.150283,1.17381 -7.013075,-2.752397 0.92324,-1.906058 1.761936,-5.663516 1.831426,-9.52527 0.152877,-3.720304 -0.258819,-7.442297 -1.22107,-11.039254 z M 87.522095,26.783751 c -1.636052,-3.968758 5.9179,-6.773075 7.55395,-2.804317 2.97821,7.127863 4.804751,15.541606 4.943735,24.466326 0.13898,8.924721 -1.503833,17.477222 -4.313283,24.47603 -1.58838,3.970958 -9.484667,-0.123245 -7.896286,-4.094203 2.47192,-6.264182 3.841787,-12.702825 3.692867,-20.704298 -0.1489,-8.001474 -1.340303,-14.98601 -4.020693,-21.389174 z m 14.779555,-8.230697 c -1.85565,-3.839477 5.03186,-8.071512 6.88751,-4.232034 5.32477,11.320189 7.87431,21.890455 7.9381,34.400284 0.0893,12.131267 -2.03003,22.115036 -7.35111,32.419664 -1.98752,3.785725 -8.95834,0.247188 -6.97939,-3.543026 4.84456,-9.361525 6.51315,-17.895567 6.40394,-29.024168 0.0643,-11.108379 -1.99882,-19.604211 -6.9189,-30.070357 z"
     id="path10969-2"
     style="fill:#ffffff;stroke-width:0.992739"
     sodipodi:nodetypes="ccccsccccsssccccccccccccsccscccccccccc" />
  <path
     d="m 16.00788,25.009275 h 22.797997 l 19.4235,-19.548813 a 3.079117,3.079117 0 0 1 4.323295,0 3.0343624,3.0343624 0 0 1 0.895092,2.1840248 v 0 80.3434732 a 3.0970189,3.0970189 0 0 1 -5.307896,2.157171 L 38.966994,73.926062 H 16.00788 A 9.8460135,9.8460135 0 0 1 6.1618655,64.080047 V 34.846338 A 9.8460135,9.8460135 0 0 1 16.00788,25.000324 Z m 58.288401,13.426382 a 2.8821967,2.8821967 0 1 1 5.460063,-1.790184 38.75749,38.75749 0 0 1 1.396343,11.877873 c -0.08056,4.260638 -0.698172,8.44967 -1.906546,10.929075 A 2.8911477,2.8911477 0 1 1 74.054606,56.91931 c 0.832436,-1.718577 1.279982,-5.003564 1.342638,-8.485473 A 33.234772,33.234772 0 0 0 74.296281,38.480412 Z M 89.190615,27.694551 a 2.9056188,2.9056188 0 0 1 5.370553,-2.219828 c 2.685276,6.426761 4.126378,14.527346 4.251692,22.574224 0.125314,8.046879 -1.047263,15.861033 -3.580373,22.171433 A 2.8921317,2.8921317 0 1 1 89.861933,68.072159 C 92.090713,62.424127 93.12007,55.281291 92.985805,48.066849 92.851541,40.852406 91.57156,33.423141 89.154811,27.649797 Z m 14.402025,-9.156792 a 2.8824218,2.8824218 0 1 1 5.19154,-2.506259 77.559736,77.559736 0 0 1 7.37555,32.617159 c 0.0805,10.938026 -2.12136,21.831298 -6.91905,31.122355 a 2.8946555,2.8946555 0 0 1 -5.12888,-2.685277 c 4.36805,-8.440719 6.3641,-18.403095 6.26564,-28.437078 a 71.607373,71.607373 0 0 0 -6.8027,-30.155655 z M 40.076908,31.185411 H 16.00788 a 3.6788287,3.6788287 0 0 0 -3.669878,3.660927 V 64.09795 a 3.6788287,3.6788287 0 0 0 3.669878,3.660926 h 24.077979 c 0,0 1.790184,0.617614 1.978153,0.742927 L 57.325334,81.364278 V 15.127457 L 42.431,30.102349 a 3.0970189,3.0970189 0 0 1 -2.354092,1.083062 z"
     id="path10969"
     style="stroke-width:0.895092" />
</svg>
